<svg aria-hidden="true" style="position: absolute; width: 0; height: 0; overflow: hidden;" version="1.1" xmlns="http://www.w3.org/2000/svg" xmlns:xlink="http://www.w3.org/1999/xlink">
<defs>
<symbol id="icon-profile" viewBox="0 0 29 32">
<path stroke-width="2.6667" stroke-miterlimit="4" stroke-linecap="round" stroke-linejoin="round" d="M28 30.667v-3.111c0-1.651-0.703-3.233-1.953-4.4-1.249-1.167-2.945-1.823-4.713-1.823h-13.333c-1.768 0-3.464 0.656-4.715 1.823-1.249 1.167-1.952 2.749-1.952 4.4v3.111M14 14.667c3.682 0 6.667-2.985 6.667-6.667s-2.985-6.667-6.667-6.667v0c-3.682 0-6.667 2.985-6.667 6.667s2.985 6.667 6.667 6.667v0z"></path>
</symbol>
<symbol id="icon-home" viewBox="0 0 31 32">
<path fill="none"  stroke-width="2.6667" stroke-miterlimit="4" stroke-linecap="round" stroke-linejoin="round"  d="M2 11.6l13.333-10.267 13.333 10.267v16.133c0 0.779-0.312 1.524-0.867 2.075-0.538 0.531-1.277 0.859-2.092 0.859-0.001 0-0.003 0-0.004 0h-20.741c-0.787 0-1.539-0.309-2.095-0.859-0.535-0.529-0.867-1.263-0.868-2.075v-16.133z"></path>
<path fill="none"  stroke-width="2.6667" stroke-miterlimit="4" stroke-linecap="round" stroke-linejoin="round"  d="M10.667 30.667v-14.667h8v14.667"></path>
</symbol>
<symbol id="icon-catalog" viewBox="0 0 48 32">
<path d="M2.667 0c0.982 0 1.778 0.796 1.778 1.778s-0.796 1.778-1.778 1.778c-0.982 0-1.778-0.796-1.778-1.778s0.796-1.778 1.778-1.778z"></path>
<path d="M13.333 0h32c0.982 0 1.778 0.796 1.778 1.778s-0.796 1.778-1.778 1.778h-32c-0.982 0-1.778-0.796-1.778-1.778s0.796-1.778 1.778-1.778z"></path>
<path d="M2.667 14.222c0.982 0 1.778 0.796 1.778 1.778s-0.796 1.778-1.778 1.778c-0.982 0-1.778-0.796-1.778-1.778s0.796-1.778 1.778-1.778z"></path>
<path d="M13.333 14.222h32c0.982 0 1.778 0.796 1.778 1.778s-0.796 1.778-1.778 1.778h-32c-0.982 0-1.778-0.796-1.778-1.778s0.796-1.778 1.778-1.778z"></path>
<path d="M2.667 28.444c0.982 0 1.778 0.796 1.778 1.778s-0.796 1.778-1.778 1.778c-0.982 0-1.778-0.796-1.778-1.778s0.796-1.778 1.778-1.778z"></path>
<path d="M13.333 28.444h32c0.982 0 1.778 0.796 1.778 1.778s-0.796 1.778-1.778 1.778h-32c-0.982 0-1.778-0.796-1.778-1.778s0.796-1.778 1.778-1.778z"></path>
</symbol>
<symbol id="icon-basket" viewBox="0 0 35 32">
<path stroke-width="2.7826" stroke-miterlimit="4" stroke-linecap="round" stroke-linejoin="round" d="M13.217 30.609c0.768 0 1.391-0.623 1.391-1.391s-0.623-1.391-1.391-1.391v0c-0.768 0-1.391 0.623-1.391 1.391s0.623 1.391 1.391 1.391v0zM27.13 30.609c0.768 0 1.391-0.623 1.391-1.391s-0.623-1.391-1.391-1.391v0c-0.768 0-1.391 0.623-1.391 1.391s0.623 1.391 1.391 1.391v0zM2.087 1.391h5.565l3.729 19.871c0.127 0.683 0.476 1.298 0.985 1.735 0.508 0.435 1.145 0.668 1.798 0.654h13.523c0.654 0.014 1.29-0.218 1.799-0.654 0.508-0.437 0.857-1.052 0.984-1.735l2.226-12.451h-23.652"></path>
</symbol>
<symbol id="icon-filter" viewBox="0 0 37 32">
<path stroke-width="4.5714" stroke-miterlimit="4" stroke-linecap="round" stroke-linejoin="round" d="M34.286 2.286h-32l12.8 16.217v11.211h6.4v-11.211l12.8-16.217z"></path>
</symbol>
<symbol id="icon-cancel-circle" viewBox="0 0 32 32">
<path d="M16 0c-8.837 0-16 7.163-16 16s7.163 16 16 16 16-7.163 16-16-7.163-16-16-16zM16 29c-7.18 0-13-5.82-13-13s5.82-13 13-13 13 5.82 13 13-5.82 13-13 13z"></path>
<path d="M21 8l-5 5-5-5-3 3 5 5-5 5 3 3 5-5 5 5 3-3-5-5 5-5z"></path>
</symbol>
</defs>
</svg>
