<!-- Generated by IcoMoon.io -->
<svg version="1.1" xmlns="http://www.w3.org/2000/svg" width="35" height="32" viewBox="0 0 35 32">
<path fill="none" stroke="#000" stroke-width="2.7826" stroke-miterlimit="4" stroke-linecap="round" stroke-linejoin="round" d="M13.217 30.609c0.768 0 1.391-0.623 1.391-1.391s-0.623-1.391-1.391-1.391v0c-0.768 0-1.391 0.623-1.391 1.391s0.623 1.391 1.391 1.391v0zM27.13 30.609c0.768 0 1.391-0.623 1.391-1.391s-0.623-1.391-1.391-1.391v0c-0.768 0-1.391 0.623-1.391 1.391s0.623 1.391 1.391 1.391v0zM2.087 1.391h5.565l3.729 19.871c0.127 0.683 0.476 1.298 0.985 1.735 0.508 0.435 1.145 0.668 1.798 0.654h13.523c0.654 0.014 1.29-0.218 1.799-0.654 0.508-0.437 0.857-1.052 0.984-1.735l2.226-12.451h-23.652"></path>
</svg>
